<svg xmlns="http://www.w3.org/2000/svg" xmlns:xlink="http://www.w3.org/1999/xlink" width="36" height="36" viewBox="0 0 36 36"><defs><style>.a{fill:#fff;stroke:#707070;}.b{clip-path:url(#a);}.c{fill:#01d169;}</style><clipPath id="a"><rect class="a" width="36" height="36"/></clipPath></defs><g class="b"><path class="c" d="M6.343,36a1.606,1.606,0,0,1-1.551-2.014L8.137,21.333l-6.534,0A1.607,1.607,0,0,1,.1,19.153L7,1.033A1.615,1.615,0,0,1,8.5,0h11.63a1.607,1.607,0,0,1,1.486,2.213l-3.839,9.435h7.093a1.609,1.609,0,0,1,1.205,2.667L7.549,35.456A1.606,1.606,0,0,1,6.343,36m3.877-17.88a1.607,1.607,0,0,1,1.549,2.016L9.639,28.2,21.325,14.861H15.388A1.608,1.608,0,0,1,13.9,12.647L17.74,3.21H9.6L3.932,18.119Z" transform="translate(4.765)"/></g></svg>